<svg width="13" height="13" viewBox="0 0 13 13" fill="none" xmlns="http://www.w3.org/2000/svg">
<g clip-path="url(#clip0_123_3218)">
<path d="M11.9174 11.4299C11.9174 11.6256 11.8756 11.709 11.8656 11.719C11.8111 11.7729 11.1964 11.9129 9.78214 11.2418C9.01579 10.8782 8.19289 10.3635 7.35959 9.73656C7.79184 9.36695 8.22523 8.97004 8.65309 8.54714C9.08128 8.1244 9.4833 7.69701 9.85738 7.26961C11.2138 9.03264 11.9174 10.5808 11.9174 11.4299ZM1.42753 11.7707C1.22912 11.7707 1.14462 11.7294 1.13438 11.7198C1.07994 11.6657 0.938567 11.0587 1.61798 9.66177C1.9862 8.90424 2.50685 8.09166 3.14158 7.26865C3.51614 7.69604 3.91817 8.12408 4.34668 8.5473C4.77422 8.9702 5.20695 9.36678 5.63985 9.73608C3.85479 11.0757 2.28667 11.7707 1.42753 11.7707ZM1.0827 1.40998C1.0827 1.21466 1.12398 1.13104 1.13438 1.12061C1.18833 1.06733 1.80323 0.927217 3.21779 1.59824C3.98495 1.96192 4.80704 2.47662 5.64099 3.10303C5.20809 3.47297 4.77438 3.87003 4.34587 4.29325C3.91833 4.71599 3.5163 5.14355 3.14288 5.57046C1.78633 3.80728 1.0827 2.25851 1.0827 1.40998ZM9.16562 6.41964C8.76879 6.87977 8.34337 7.33975 7.8869 7.79057C7.42134 8.25103 6.95675 8.66992 6.50062 9.05254C6.03457 8.66125 5.569 8.24108 5.11287 7.79057C4.64665 7.33044 4.22204 6.87143 3.83464 6.42124C4.23082 5.9603 4.65575 5.50113 5.11173 5.05046C5.57843 4.59017 6.04285 4.17015 6.49899 3.78754C6.96569 4.17946 7.43158 4.59964 7.88723 5.04998C8.3536 5.51044 8.77854 5.96865 9.16562 6.41964ZM11.5724 1.06941C11.771 1.06941 11.855 1.11018 11.8656 1.12061C11.9203 1.17438 12.0614 1.78153 11.3824 3.1783C11.0142 3.93599 10.4931 4.74857 9.85835 5.57159C9.48412 5.14403 9.08225 4.71664 8.65358 4.29341C8.22555 3.87132 7.79265 3.47425 7.36057 3.1048C9.14498 1.76435 10.7131 1.06941 11.5724 1.06941ZM12.6316 0.363883C11.6925 -0.564092 9.18154 0.341896 6.50013 2.4097C3.8179 0.341896 1.30695 -0.563611 0.368517 0.363883C-0.571221 1.29186 0.346254 3.77133 2.43909 6.41996C0.346742 9.06875 -0.571221 11.5487 0.368517 12.4762C1.30744 13.4038 3.81904 12.4975 6.50029 10.4302C9.18154 12.4975 11.6927 13.4038 12.6317 12.4762C13.5713 11.5481 12.6534 9.06811 10.5602 6.41996C12.6538 3.77133 13.5713 1.29138 12.6316 0.363883Z" fill="#FEFEFE"/>
<path d="M9.16563 6.41957C8.76881 6.87971 8.34338 7.33968 7.88692 7.79051C7.42136 8.25097 6.95677 8.66986 6.50063 9.05248C6.03458 8.66119 5.56902 8.24102 5.11288 7.79051C4.64667 7.33038 4.22206 6.87136 3.83466 6.42118C4.23083 5.96024 4.65577 5.50107 5.11174 5.0504C5.57844 4.59011 6.04287 4.17009 6.49901 3.78748C6.96571 4.1794 7.43159 4.59957 7.88724 5.04992C8.35362 5.51038 8.77856 5.96859 9.16563 6.41957Z" fill="#ED4233"/>
</g>
<defs>
<clipPath id="clip0_123_3218">
<rect width="13" height="13" fill="white"/>
</clipPath>
</defs>
</svg>
