<svg width="19" height="16" viewBox="0 0 19 16" fill="none" xmlns="http://www.w3.org/2000/svg">
<g clip-path="url(#clip0_666_1406)">
<path fill-rule="evenodd" clip-rule="evenodd" d="M3.55 7.71399L2.178 6.84799L3.55 5.83799V7.71399ZM6.04 3.89999H14.6V8.25099L9.5 11.472L4.4 8.25199V3.89999H6.04ZM9.5 1.45299L11.667 3.04999H7.333L9.5 1.45299ZM16.822 6.84799L15.45 7.71399V5.83699L16.822 6.84799ZM13.052 10.234L17.15 7.64599V14.346L13.052 10.234ZM6.685 10.7L9.273 12.334C9.412 12.422 9.588 12.422 9.727 12.334L12.315 10.7L16.551 14.95H2.45L6.685 10.7ZM1.85 7.64599L5.948 10.234L1.85 14.346V7.64599ZM17.827 6.53299L15.45 4.77999V3.47499C15.45 3.23999 15.26 3.04999 15.025 3.04999H13.1L9.752 0.582988C9.602 0.472988 9.398 0.472988 9.248 0.582988L5.9 3.04999H3.975C3.74 3.04999 3.55 3.23999 3.55 3.47399V4.78099L1.173 6.53299C1.064 6.61299 1 6.73999 1 6.87499V15.375C1 15.609 1.19 15.8 1.425 15.8H17.575C17.81 15.8 18 15.61 18 15.375V6.87499C18 6.73999 17.936 6.61299 17.827 6.53299Z" fill="#FF5343" stroke="black" stroke-width="0.2"/>
</g>
<defs>
<clipPath id="clip0_666_1406">
<rect width="19" height="16" fill="white"/>
</clipPath>
</defs>
</svg>
