<svg width="13" height="13" viewBox="0 0 13 13" fill="none" xmlns="http://www.w3.org/2000/svg">
<g clip-path="url(#clip0_665_1273)">
<path d="M11.0839 10.6715C11.0839 10.837 11.0486 10.9076 11.0401 10.9161C10.994 10.9617 10.4739 11.0801 9.2772 10.5123C8.62875 10.2046 7.93245 9.76907 7.22735 9.23863C7.5931 8.92588 7.95981 8.59004 8.32185 8.2322C8.68416 7.87449 9.02433 7.51285 9.34086 7.15121C10.4886 8.643 11.0839 9.95295 11.0839 10.6715ZM2.20791 10.9598C2.04002 10.9598 1.96852 10.9249 1.95986 10.9167C1.9138 10.871 1.79417 10.3574 2.36906 9.17535C2.68063 8.53436 3.12118 7.84679 3.65826 7.1504C3.9752 7.51204 4.31537 7.87422 4.67796 8.23233C5.03972 8.59017 5.40588 8.92574 5.77218 9.23822C4.26175 10.3718 2.93487 10.9598 2.20791 10.9598ZM1.91613 2.19306C1.91613 2.02779 1.95106 1.95704 1.95986 1.94821C2.00551 1.90312 2.52581 1.78457 3.72275 2.35236C4.37188 2.66009 5.0675 3.0956 5.77315 3.62564C5.40685 3.93867 5.03986 4.27464 4.67727 4.63275C4.31551 4.99046 3.97533 5.35223 3.65936 5.71347C2.51151 4.22154 1.91613 2.91105 1.91613 2.19306ZM8.75552 6.432C8.41975 6.82135 8.05977 7.21056 7.67353 7.59202C7.2796 7.98164 6.88648 8.33609 6.50052 8.65984C6.10617 8.32875 5.71223 7.97322 5.32627 7.59202C4.93178 7.20268 4.5725 6.81428 4.2447 6.43336C4.57992 6.04333 4.93948 5.6548 5.32531 5.27347C5.72021 4.88399 6.11318 4.52859 6.49915 4.20484C6.89405 4.53647 7.28826 4.892 7.67381 5.27306C8.06843 5.66268 8.428 6.0504 8.75552 6.432ZM10.792 1.90489C10.9601 1.90489 11.0311 1.93938 11.0401 1.94821C11.0864 1.9937 11.2058 2.50744 10.6313 3.68933C10.3197 4.33046 9.87876 5.01802 9.34168 5.71442C9.02502 5.35264 8.68498 4.991 8.32226 4.63289C7.96008 4.27573 7.59378 3.93975 7.22817 3.62714C8.73806 2.49291 10.0649 1.90489 10.792 1.90489ZM11.6883 1.3079C10.8936 0.522691 8.769 1.2893 6.50011 3.03898C4.23053 1.2893 2.10588 0.523099 1.31182 1.3079C0.516659 2.09311 1.29298 4.19112 3.06385 6.43227C1.2934 8.67356 0.516659 10.772 1.31182 11.5568C2.1063 12.3417 4.2315 11.5748 6.50025 9.82557C8.769 11.5748 10.8938 12.3417 11.6884 11.5568C12.4834 10.7714 11.7067 8.67301 9.93555 6.43227C11.7071 4.19112 12.4834 2.0927 11.6883 1.3079Z" fill="black" stroke="black" stroke-width="0.3"/>
<path d="M8.75545 6.43193C8.41968 6.82128 8.0597 7.21049 7.67347 7.59196C7.27953 7.98158 6.88642 8.33602 6.50045 8.65977C6.1061 8.32869 5.71217 7.97316 5.3262 7.59196C4.93172 7.20261 4.57243 6.81422 4.24463 6.43329C4.57985 6.04327 4.93942 5.65474 5.32524 5.2734C5.72014 4.88392 6.11312 4.52853 6.49908 4.20477C6.89398 4.5364 7.28819 4.89193 7.67374 5.27299C8.06837 5.66261 8.42793 6.05033 8.75545 6.43193Z" fill="#59C82A"/>
</g>
<defs>
<clipPath id="clip0_665_1273">
<rect width="13" height="13" fill="white"/>
</clipPath>
</defs>
</svg>
