<svg width="83" height="82" viewBox="0 0 83 82" fill="none" xmlns="http://www.w3.org/2000/svg">
<g clip-path="url(#clip0_665_1169)">
<path d="M51.0658 46.3194C52.7228 47.1494 54.1208 48.4564 55.2598 50.2404C56.3998 52.0254 56.9688 54.1404 56.9688 56.5894C56.9688 60.7394 55.4158 63.9754 52.3088 66.2994C49.2018 68.6224 45.2878 69.7844 40.5648 69.7844C37.4998 69.7844 34.5798 69.1414 31.8048 67.8544C29.0288 66.5684 26.7917 64.8884 25.0938 62.8134L31.3067 56.5274C33.8337 59.7224 37.0448 61.3194 40.9378 61.3194C42.9678 61.3194 44.6148 60.8844 45.8778 60.0124C47.1408 59.1414 47.7728 57.9174 47.7728 56.3404C47.7728 52.9384 45.0178 51.2364 39.5088 51.2364H35.9048V42.6474H38.8247C44.0447 42.6474 46.6548 41.0084 46.6548 37.7304C46.6548 36.4444 46.1367 35.3754 45.1007 34.5254C44.0658 33.6744 42.6778 33.2494 40.9378 33.2494C37.3338 33.2494 34.4137 34.6594 32.1777 37.4814L26.1497 31.4444C30.0847 27.0044 34.9318 24.7844 40.6898 24.7844C44.9148 24.7844 48.5077 25.8014 51.4697 27.8344C54.4317 29.8674 55.9128 32.8754 55.9128 36.8594C55.9128 41.0094 54.2968 44.1624 51.0658 46.3194Z" fill="#FF5343"/>
<path fill-rule="evenodd" clip-rule="evenodd" d="M10.0448 4.76038C10.3585 4.76038 10.6691 4.82217 10.959 4.94223C11.2488 5.06229 11.5122 5.23826 11.734 5.4601C11.9559 5.68194 12.1319 5.9453 12.2519 6.23515C12.372 6.52499 12.4338 6.83565 12.4338 7.14938C12.4338 7.4631 12.372 7.77376 12.2519 8.06361C12.1319 8.35345 11.9559 8.61682 11.734 8.83865C11.5122 9.06049 11.2488 9.23647 10.959 9.35652C10.6691 9.47658 10.3585 9.53838 10.0448 9.53838C9.41116 9.53838 8.80351 9.28668 8.35548 8.83865C7.90746 8.39063 7.65576 7.78298 7.65576 7.14938C7.65576 6.51577 7.90746 5.90812 8.35548 5.4601C8.80351 5.01207 9.41116 4.76038 10.0448 4.76038ZM17.8928 4.76038C18.2065 4.76038 18.5171 4.82217 18.807 4.94223C19.0968 5.06229 19.3602 5.23826 19.582 5.4601C19.8039 5.68194 19.9799 5.9453 20.0999 6.23515C20.22 6.52499 20.2818 6.83565 20.2818 7.14938C20.2818 7.4631 20.22 7.77376 20.0999 8.06361C19.9799 8.35345 19.8039 8.61682 19.582 8.83865C19.3602 9.06049 19.0968 9.23647 18.807 9.35652C18.5171 9.47658 18.2065 9.53838 17.8928 9.53838C17.2592 9.53838 16.6515 9.28668 16.2035 8.83865C15.7555 8.39063 15.5038 7.78298 15.5038 7.14938C15.5038 6.51577 15.7555 5.90812 16.2035 5.4601C16.6515 5.01207 17.2592 4.76038 17.8928 4.76038ZM25.7388 4.76038C26.0525 4.76038 26.3631 4.82217 26.653 4.94223C26.9428 5.06229 27.2062 5.23826 27.428 5.4601C27.6499 5.68194 27.8259 5.9453 27.9459 6.23515C28.066 6.52499 28.1278 6.83565 28.1278 7.14938C28.1278 7.4631 28.066 7.77376 27.9459 8.06361C27.8259 8.35345 27.6499 8.61682 27.428 8.83865C27.2062 9.06049 26.9428 9.23647 26.653 9.35652C26.3631 9.47658 26.0525 9.53838 25.7388 9.53838C25.1052 9.53838 24.4975 9.28668 24.0495 8.83865C23.6015 8.39063 23.3498 7.78298 23.3498 7.14938C23.3498 6.51577 23.6015 5.90812 24.0495 5.4601C24.4975 5.01207 25.1052 4.76038 25.7388 4.76038Z" fill="#979797"/>
<path fill-rule="evenodd" clip-rule="evenodd" d="M79.7048 11.9264H2.48375V5.15938C2.48507 4.42115 2.77892 3.71355 3.30092 3.19154C3.82292 2.66954 4.53053 2.3757 5.26875 2.37438H76.9187C77.6573 2.37543 78.3653 2.6693 78.8876 3.19154C79.4098 3.71379 79.7037 4.42181 79.7048 5.16038V11.9264ZM79.7048 76.8094C79.7037 77.5479 79.4098 78.256 78.8876 78.7782C78.3653 79.3005 77.6573 79.5943 76.9187 79.5954H5.26875C4.53018 79.5943 3.82217 79.3005 3.29992 78.7782C2.77767 78.256 2.48381 77.5479 2.48275 76.8094V14.3144H79.7038V76.8084L79.7048 76.8094ZM76.9187 -0.015625H5.26875C3.89666 -0.0143012 2.58115 0.531346 1.61093 1.50156C0.640721 2.47177 0.0950738 3.78729 0.09375 5.15938L0.09375 76.8094C0.0950738 78.1815 0.640721 79.497 1.61093 80.4672C2.58115 81.4374 3.89666 81.9831 5.26875 81.9844H76.9187C78.2908 81.9831 79.6064 81.4374 80.5766 80.4672C81.5468 79.497 82.0924 78.1815 82.0938 76.8094V5.15938C82.0924 3.78729 81.5468 2.47177 80.5766 1.50156C79.6064 0.531346 78.2908 -0.0143012 76.9187 -0.015625Z" fill="#979797"/>
<path fill-rule="evenodd" clip-rule="evenodd" d="M72.9379 5.95435H45.0749C44.7579 5.95435 44.454 6.08025 44.2299 6.30435C44.0058 6.52846 43.8799 6.83241 43.8799 7.14935C43.8799 7.46628 44.0058 7.77023 44.2299 7.99434C44.454 8.21844 44.7579 8.34435 45.0749 8.34435H72.9379C73.2548 8.34435 73.5588 8.21844 73.7829 7.99434C74.007 7.77023 74.1329 7.46628 74.1329 7.14935C74.1329 6.83241 74.007 6.52846 73.7829 6.30435C73.5588 6.08025 73.2548 5.95435 72.9379 5.95435Z" fill="#979797"/>
</g>
<defs>
<clipPath id="clip0_665_1169">
<rect width="82" height="82" fill="white" transform="translate(0.09375 -0.015625)"/>
</clipPath>
</defs>
</svg>
