<svg width="110" height="97" viewBox="0 0 110 97" fill="none" xmlns="http://www.w3.org/2000/svg">
<g clip-path="url(#clip0_665_1196)">
<path fill-rule="evenodd" clip-rule="evenodd" d="M5.5 5H80.5V80H5.5V5Z" stroke="#979797" stroke-width="2"/>
<path fill-rule="evenodd" clip-rule="evenodd" d="M1 10.161H10.161V1H1V10.161ZM1 47.161H10.161V38H1V47.161ZM1 84.161H10.161V75H1V84.161ZM75.5 10.161H84.661V1H75.5V10.161ZM75.5 47.161H84.661V38H75.5V47.161ZM75.5 84.161H84.661V75H75.5V84.161ZM38.5 10.161H47.661V1H38.5V10.161ZM38.5 84.161H47.661V75H38.5V84.161Z" fill="white" stroke="#979797" stroke-width="2" stroke-linecap="round" stroke-linejoin="round"/>
<path fill-rule="evenodd" clip-rule="evenodd" d="M80.733 80L77 95.867L83.533 91.189L91 92.479L80.733 80Z" fill="#979797" stroke="#979797" stroke-linecap="round" stroke-linejoin="round"/>
<path d="M37.744 56.341H58.664V65H27V63.546C27 58.153 28.074 53.697 30.223 50.179C32.373 46.661 36.123 43.553 41.473 40.857L43.938 39.656C46.129 38.56 47.593 37.507 48.331 36.496C49.068 35.485 49.437 34.41 49.437 33.272C49.437 31.924 48.889 30.808 47.794 29.922C46.698 29.038 45.202 28.596 43.306 28.596C38.84 28.596 35.427 30.955 33.067 35.674L27 29.607C28.348 26.784 30.466 24.477 33.352 22.687C36.238 20.894 39.409 20 42.864 20C47.246 20 51.006 21.159 54.145 23.476C57.285 25.794 58.854 29.016 58.854 33.146C58.854 36.39 57.959 39.098 56.168 41.268C54.378 43.438 51.754 45.408 48.299 47.177L44.444 49.137C42.379 50.19 40.82 51.243 39.767 52.297C38.713 53.35 38.039 54.698 37.744 56.341Z" fill="#FF5343"/>
</g>
<defs>
<clipPath id="clip0_665_1196">
<rect width="92" height="97" fill="white"/>
</clipPath>
</defs>
</svg>
